			<svg id="Layer_1" xmlns="http://www.w3.org/2000/svg" xmlns:xlink="http://www.w3.org/1999/xlink" x="0px" y="0px" width="86px" height="82px" viewBox="0 0 43 41" enable-background="new 0 0 43 41" xml:space="preserve">
				<g>
					<g>
						<path d="M23.241,6.214c0,0,0.365,0.059,0.933,0.234c0.575,0.168,1.354,0.45,2.208,0.868
							c0.857,0.416,1.793,0.965,2.718,1.632c0.464,0.331,0.928,0.69,1.376,1.078c0.457,0.378,0.887,0.797,1.322,1.212
							c0.415,0.434,0.836,0.861,1.214,1.319c0.392,0.444,0.745,0.913,1.08,1.374c0.667,0.924,1.216,1.86,1.632,2.718
							c0.418,0.856,0.699,1.635,0.865,2.211c0.174,0.569,0.232,0.935,0.232,0.935s-0.367-0.058-0.935-0.232
							c-0.576-0.167-1.356-0.448-2.211-0.865c-0.858-0.415-1.794-0.965-2.718-1.632c-0.461-0.335-0.93-0.688-1.374-1.08
							c-0.457-0.378-0.885-0.799-1.319-1.214c-0.414-0.434-0.833-0.864-1.212-1.322c-0.388-0.447-0.746-0.912-1.078-1.376
							c-0.666-0.925-1.216-1.861-1.632-2.718c-0.418-0.855-0.7-1.634-0.868-2.208C23.3,6.58,23.241,6.214,23.241,6.214z"/>
					</g>
					<g>
						<path d="M36.821,6.214c0,0-0.059,0.365-0.234,0.933c-0.168,0.575-0.45,1.354-0.868,2.208
							c-0.416,0.857-0.965,1.793-1.632,2.718c-0.331,0.464-0.69,0.928-1.078,1.376c-0.378,0.457-0.797,0.887-1.212,1.322
							c-0.434,0.415-0.861,0.836-1.319,1.214c-0.444,0.392-0.913,0.745-1.374,1.08c-0.924,0.667-1.86,1.216-2.718,1.632
							c-0.856,0.417-1.635,0.699-2.211,0.865c-0.569,0.174-0.935,0.232-0.935,0.232s0.058-0.367,0.232-0.935
							c0.167-0.576,0.448-1.356,0.865-2.211c0.415-0.858,0.965-1.794,1.632-2.718c0.335-0.461,0.688-0.93,1.08-1.374
							c0.378-0.457,0.799-0.885,1.214-1.319c0.434-0.414,0.864-0.833,1.322-1.212c0.447-0.388,0.912-0.746,1.376-1.078
							c0.925-0.666,1.861-1.216,2.718-1.632c0.855-0.418,1.634-0.7,2.208-0.868C36.456,6.273,36.821,6.214,36.821,6.214z"/>
					</g>
				</g>
				<g>
					<g>
						<path d="M3.985,6.214c0,0,0.377,0.053,0.968,0.22c0.598,0.16,1.411,0.432,2.311,0.842
							c0.902,0.407,1.893,0.949,2.88,1.61c0.495,0.329,0.992,0.685,1.473,1.072c0.491,0.377,0.957,0.795,1.426,1.209
							c0.451,0.434,0.908,0.862,1.323,1.321c0.428,0.445,0.819,0.916,1.19,1.38c0.74,0.929,1.36,1.873,1.838,2.74
							c0.48,0.864,0.817,1.654,1.023,2.238c0.214,0.576,0.296,0.949,0.296,0.949s-0.378-0.052-0.97-0.218
							c-0.599-0.158-1.413-0.43-2.314-0.839c-0.903-0.406-1.893-0.948-2.88-1.61c-0.492-0.332-0.994-0.683-1.471-1.074
							c-0.491-0.376-0.954-0.798-1.424-1.212c-0.451-0.435-0.906-0.865-1.321-1.324c-0.425-0.449-0.82-0.915-1.188-1.382
							c-0.739-0.93-1.359-1.874-1.838-2.74C4.828,8.533,4.49,7.744,4.282,7.161C4.068,6.586,3.985,6.214,3.985,6.214z"/>
					</g>
					<g>
						<path d="M17.913,7.607c0,0-0.05,0.347-0.208,0.882c-0.151,0.541-0.408,1.272-0.794,2.066
							c-0.384,0.797-0.894,1.661-1.516,2.508c-0.31,0.425-0.645,0.848-1.009,1.254c-0.355,0.415-0.749,0.802-1.138,1.193
							c-0.409,0.371-0.811,0.749-1.243,1.083c-0.418,0.348-0.862,0.658-1.298,0.95c-0.874,0.582-1.762,1.051-2.577,1.396
							c-0.813,0.347-1.555,0.568-2.104,0.692c-0.542,0.131-0.892,0.164-0.892,0.164s0.049-0.348,0.206-0.884
							c0.15-0.543,0.406-1.274,0.791-2.069c0.383-0.798,0.893-1.662,1.516-2.508c0.313-0.422,0.643-0.85,1.011-1.251
							c0.354-0.416,0.751-0.8,1.141-1.19c0.409-0.371,0.814-0.746,1.246-1.08c0.422-0.345,0.861-0.659,1.3-0.948
							c0.875-0.582,1.763-1.05,2.577-1.396c0.812-0.348,1.554-0.57,2.102-0.695C17.564,7.641,17.913,7.607,17.913,7.607z"/>
					</g>
				</g>
				<g>
					<path d="M2,36.857c0,0,0.234-0.704,0.884-1.818c0.33-0.552,0.745-1.222,1.301-1.933
						c0.286-0.352,0.589-0.726,0.91-1.121c0.338-0.381,0.716-0.759,1.105-1.168c0.41-0.382,0.849-0.772,1.308-1.175
						c0.479-0.376,0.981-0.761,1.511-1.144c0.546-0.357,1.112-0.723,1.711-1.068c0.61-0.322,1.237-0.657,1.898-0.948
						c1.326-0.578,2.76-1.05,4.258-1.374c0.755-0.121,1.514-0.291,2.285-0.366l1.163-0.069l0.583-0.033l0.292-0.016l0.146-0.008
						l0.073-0.004l0.036-0.002l0.018-0.001l0.138,0.002c0.704,0.041,1.407,0.081,2.108,0.122c0.755,0.069,1.595,0.24,2.373,0.368
						c1.526,0.324,2.94,0.799,4.273,1.374c0.661,0.293,1.289,0.625,1.899,0.948c0.599,0.345,1.164,0.713,1.711,1.068
						c0.53,0.383,1.032,0.77,1.512,1.144c0.452,0.406,0.889,0.799,1.308,1.176c0.39,0.409,0.765,0.791,1.107,1.167
						c0.325,0.396,0.639,0.759,0.914,1.117c0.547,0.721,0.964,1.389,1.293,1.942c0.65,1.115,0.882,1.82,0.882,1.82
						s-0.147-0.108-0.422-0.311c-0.275-0.192-0.678-0.475-1.191-0.834c-0.512-0.35-1.151-0.743-1.865-1.19
						c-0.724-0.437-1.543-0.901-2.437-1.377c-0.451-0.223-0.921-0.455-1.408-0.695c-0.49-0.215-0.997-0.437-1.518-0.666
						c-0.535-0.188-1.06-0.425-1.615-0.612c-0.567-0.157-1.116-0.383-1.699-0.535c-0.59-0.126-1.166-0.321-1.769-0.437
						c-0.602-0.089-1.222-0.241-1.811-0.321c-0.589-0.065-1.182-0.13-1.777-0.195c-0.702-0.027-1.406-0.054-2.11-0.08
						c0.235,0.006,0.057,0.002,0.105,0.004l-0.015,0.001l-0.03,0.001l-0.059,0.002l-0.118,0.005l-0.236,0.009l-0.472,0.018l-0.944,0.032
						c-0.625,0.066-1.247,0.132-1.865,0.197c-0.616,0.086-1.217,0.229-1.825,0.322c-0.602,0.119-1.179,0.31-1.77,0.436
						c-0.582,0.153-1.133,0.377-1.7,0.534c-0.556,0.187-1.079,0.426-1.616,0.612c-0.521,0.229-1.028,0.451-1.518,0.666
						c-0.486,0.24-0.956,0.473-1.408,0.696c-0.889,0.481-1.72,0.933-2.442,1.372c-0.705,0.457-1.347,0.847-1.857,1.199
						c-0.512,0.36-0.915,0.642-1.189,0.835C2.146,36.749,2,36.857,2,36.857z"/>
				</g>
			</svg>
